<?xml version="1.0" encoding="utf-8"?>
<!-- Generator: Adobe Illustrator 22.0.1, SVG Export Plug-In . SVG Version: 6.00 Build 0)  -->
<svg version="1.1" id="Layer_1" xmlns="http://www.w3.org/2000/svg" xmlns:xlink="http://www.w3.org/1999/xlink" x="0px" y="0px"
	 viewBox="0 0 512 512" style="enable-background:new 0 0 512 512;" xml:space="preserve">
<style type="text/css">
	.st0{fill:#FFFFFF;}
</style>
<path class="st0" d="M338.7,409l117.7,103H221L338.7,409z M179.8,442.7l57.2,31.8L194.2,512H55L179.8,442.7z"/>
<path class="st0" d="M312.9,202.4c-34.5-34.5-90.4-34.5-124.8,0c-34.5,34.5-34.5,90.4,0,124.8c34.5,34.5,90.4,34.5,124.8,0h0
	C347.3,292.8,347.3,236.9,312.9,202.4z M235.3,214.1c-17.1,5.1-30.5,18.5-35.6,35.6c-1.1,3.7-4.6,6.3-8.5,6.3
	c-0.9,0-1.7-0.1-2.5-0.4c-4.7-1.4-7.3-6.3-5.9-11c6.8-22.8,24.7-40.7,47.5-47.5c4.7-1.4,9.6,1.3,10.9,6
	C242.6,207.8,239.9,212.7,235.3,214.1z"/>
<path class="st0" d="M218.7,51.2c3.9,2.9,9.4,2.1,12.4-1.8l10.6-14.1v44.1c0,4.9,3.9,8.8,8.8,8.8c4.9,0,8.8-4,8.8-8.8V35.3
	l10.6,14.1c2.9,3.9,8.5,4.7,12.4,1.8s4.7-8.4,1.8-12.3L257.5,3.5c-0.1-0.1-0.3-0.2-0.4-0.3c-2.9-3.7-8.3-4.3-11.9-1.4
	c-0.5,0.4-1,0.9-1.4,1.4c-0.1,0.1-0.3,0.2-0.4,0.3l-26.5,35.3C214,42.7,214.8,48.3,218.7,51.2z"/>
<path class="st0" d="M362.8,152.5c-3.4-3.4-9-3.4-12.5,0L337.8,165c-3.6,3.3-3.8,8.9-0.5,12.5c3.3,3.6,8.9,3.8,12.5,0.5
	c0.2-0.2,0.4-0.3,0.5-0.5l12.5-12.5C366.2,161.5,366.2,155.9,362.8,152.5z"/>
<path class="st0" d="M138.1,165l12.5,12.5c3.6,3.3,9.2,3.1,12.5-0.5c3.1-3.4,3.1-8.6,0-12l-12.5-12.5c-3.5-3.4-9.1-3.3-12.5,0.2
	C134.8,156.1,134.8,161.5,138.1,165L138.1,165z"/>
<path class="st0" d="M82.7,256c-4.9,0-8.8,4-8.8,8.8s4,8.8,8.8,8.8H118c4.9,0,8.8-4,8.8-8.8s-3.9-8.8-8.8-8.8H82.7z"/>
<path class="st0" d="M241.6,397.2v17.7c0,4.9,3.9,8.8,8.8,8.8c4.9,0,8.8-4,8.8-8.8v-17.7c0-4.9-4-8.8-8.8-8.8
	S241.6,392.4,241.6,397.2z"/>
<path class="st0" d="M382.9,256c-4.9,0-8.8,4-8.8,8.8s4,8.8,8.8,8.8h35.3c4.9,0,8.8-4,8.8-8.8s-3.9-8.8-8.8-8.8H382.9z"/>
<path class="st0" d="M250.4,105.9c-4.9,0-8.8,4-8.8,8.8v17.7c0,4.9,4,8.8,8.8,8.8s8.8-4,8.8-8.8v-17.7
	C259.3,109.9,255.3,105.9,250.4,105.9z"/>
<path class="st0" d="M138.1,377.2c3.4,3.4,9,3.4,12.5,0l12.5-12.5c3.3-3.6,3.1-9.2-0.5-12.5c-3.4-3.1-8.6-3.1-12,0l-12.5,12.5
	C134.7,368.2,134.7,373.7,138.1,377.2z"/>
<path class="st0" d="M348.7,375.7c3.4,3.4,9,3.4,12.5,0c3.4-3.4,3.5-9,0-12.5l-12.5-12.5c-3.4-3.4-9-3.4-12.5,0s-3.4,9,0,12.5
	L348.7,375.7z"/>
</svg>
