<?xml version="1.0" encoding="utf-8"?>
<!-- Generator: Adobe Illustrator 22.0.1, SVG Export Plug-In . SVG Version: 6.00 Build 0)  -->
<svg version="1.1" id="Layer_1" xmlns="http://www.w3.org/2000/svg" xmlns:xlink="http://www.w3.org/1999/xlink" x="0px" y="0px"
	 viewBox="0 0 512 512" style="enable-background:new 0 0 512 512;" xml:space="preserve">
<style type="text/css">
	.st0{fill:#FFFFFF;}
</style>
<path class="st0" d="M357.7,340.8c6.3-2.3,12.8-4.2,19.4-5.7c4.6-0.9,7.6-5.5,6.7-10.1s-5.4-7.6-10.1-6.7
	c-7.3,1.6-14.6,3.7-21.6,6.3c-14.9,5.7-30.8,8.4-46.7,8.1c-15.9,0.4-31.8-2.4-46.7-8.1c-16.7-6.3-34.4-9.4-52.2-9
	c-17.8-0.4-35.6,2.7-52.3,9c-6.3,2.3-12.8,4.2-19.4,5.6c-4.6,0.9-7.6,5.5-6.7,10.1c0.9,4.6,5.5,7.6,10.1,6.7
	c7.3-1.6,14.5-3.7,21.5-6.2c14.9-5.7,30.8-8.5,46.7-8.1c15.9-0.4,31.8,2.4,46.7,8.1c16.7,6.3,34.4,9.4,52.2,9
	C323.3,350.2,341,347.1,357.7,340.8z"/>
<path class="st0" d="M255.3,389.6c4.7,0.4,8.8-3.1,9.2-7.8c0.4-4.7-3.1-8.8-7.8-9.2c-5.7-0.5-11.3-1.3-16.9-2.4
	c-17.4-3.7-35.4-4.1-53-1c-6.2,0.9-12.3,2.2-18.3,3.7c-4.6,1.2-7.3,5.9-6.1,10.4c1,3.8,4.4,6.4,8.3,6.4c0.7,0,1.5-0.1,2.2-0.3
	c5.4-1.4,11-2.5,16.5-3.4c15.7-2.8,31.8-2.5,47.4,0.9C242.9,388.1,249.1,389,255.3,389.6z"/>
<path class="st0" d="M249.2,491.5c0.1,0.1,0.3,0.2,0.4,0.3c0.9,0.8,1.8,1.6,2.9,2.2c2.3,1.1,4.9,1.1,7.1,0c1-0.6,2-1.4,2.9-2.2
	c0.1-0.1,0.3-0.2,0.4-0.3l25.6-34.1c2.8-3.8,2.1-9.1-1.7-11.9c-3.8-2.8-9.1-2.1-11.9,1.7l-10.2,13.7v-42.7c0-4.7-3.8-8.5-8.5-8.5
	c-4.7,0-8.5,3.8-8.5,8.5v42.7l-10.2-13.7c-2.8-3.8-8.2-4.5-11.9-1.7c-3.8,2.8-4.5,8.2-1.7,11.9L249.2,491.5z"/>
<path class="st0" d="M352.5,121.7l-12.1,12.1c-3.5,3.2-3.7,8.6-0.5,12.1c3.2,3.5,8.6,3.7,12.1,0.5c0.2-0.2,0.3-0.3,0.5-0.5
	l12.1-12.1c3.3-3.4,3.2-8.8-0.2-12.1C361.1,118.5,355.9,118.5,352.5,121.7L352.5,121.7z"/>
<path class="st0" d="M159.5,145.9c3.5,3.2,8.9,3,12.1-0.5c3-3.3,3-8.3,0-11.6l-12.1-12.1c-3.4-3.3-8.8-3.2-12.1,0.2
	c-3.2,3.3-3.2,8.6,0,11.9L159.5,145.9z"/>
<path class="st0" d="M128,221.8H93.9c-4.7,0-8.5,3.8-8.5,8.5c0,4.7,3.8,8.5,8.5,8.5H128c4.7,0,8.5-3.8,8.5-8.5
	C136.5,225.6,132.7,221.8,128,221.8z"/>
<path class="st0" d="M384,221.8c-4.7,0-8.5,3.8-8.5,8.5c0,4.7,3.8,8.5,8.5,8.5h34.1c4.7,0,8.5-3.8,8.5-8.5c0-4.7-3.8-8.5-8.5-8.5
	H384z"/>
<path class="st0" d="M264.5,102.3V76.7c0-4.7-3.8-8.5-8.5-8.5c-4.7,0-8.5,3.8-8.5,8.5v25.6c0,4.7,3.8,8.5,8.5,8.5
	C260.7,110.9,264.5,107,264.5,102.3z"/>
<path class="st0" d="M384,85.3c0-9.4,7.6-17.1,17.1-17.1c4.7,0,8.5-3.8,8.5-8.5c0-9.4,7.6-17.1,17.1-17.1h8.5
	c9.4,0,17.1,7.6,17.1,17.1c0,4.7,3.8,8.5,8.5,8.5c9.4,0,17.1,7.6,17.1,17.1s-7.6,17.1-17.1,17.1h-59.7
	C391.6,102.3,384,94.7,384,85.3z"/>
<path class="st0" d="M110.9,76.7H51.2c-9.4,0-17.1-7.6-17.1-17.1s7.6-17.1,17.1-17.1c4.7,0,8.5-3.8,8.5-8.5
	c0-9.4,7.6-17.1,17.1-17.1h8.5c9.4,0,17.1,7.6,17.1,17.1c0,4.7,3.8,8.5,8.5,8.5c9.4,0,17.1,7.6,17.1,17.1S120.4,76.7,110.9,76.7z"/>
<path class="st0" d="M503.5,281.5c-16,0.4-31.8-2.4-46.7-8.1c-16.7-6.3-34.4-9.4-52.3-9c-17.8-0.4-35.6,2.7-52.3,9
	c-8.7,3.3-17.8,5.6-27.1,6.9c27.7-38.2,19.1-91.5-19-119.2c-38.2-27.7-91.5-19.1-119.2,19c-18.3,25.2-21.4,58.4-8.1,86.5
	c-8.4,1.6-16.6,3.9-24.6,6.8c-14.9,5.7-30.8,8.4-46.7,8c-15.9,0.4-31.8-2.4-46.7-8.1c-16.7-6.3-34.4-9.4-52.3-9
	c-4.7,0-8.5,3.8-8.5,8.5c0,4.7,3.8,8.5,8.5,8.5c15.9-0.4,31.8,2.4,46.7,8.1c16.7,6.3,34.4,9.4,52.3,9c17.8,0.4,35.6-2.7,52.3-9
	c14.9-5.7,30.8-8.4,46.7-8.1c15.9-0.4,31.8,2.4,46.7,8.1c16.7,6.3,34.4,9.4,52.2,9c17.8,0.4,35.6-2.7,52.3-9
	c14.9-5.7,30.8-8.4,46.8-8.1c16-0.4,31.8,2.4,46.7,8.1c16.7,6.3,34.4,9.4,52.3,9c4.7,0,8.5-3.8,8.5-8.5
	C512,285.4,508.2,281.5,503.5,281.5z M190.6,210.8c6.6-22.1,23.9-39.3,45.9-45.9c4.5-1.3,9.3,1.3,10.6,5.8c1.3,4.5-1.2,9.2-5.7,10.5
	c-16.6,4.9-29.5,17.9-34.4,34.4c-1.1,3.6-4.4,6.1-8.2,6.1c-0.8,0-1.6-0.1-2.4-0.4C191.8,220.1,189.2,215.4,190.6,210.8z"/>
</svg>
