<?xml version="1.0" encoding="utf-8"?>
<!-- Generator: Adobe Illustrator 22.0.1, SVG Export Plug-In . SVG Version: 6.00 Build 0)  -->
<svg version="1.1" id="Layer_1" xmlns="http://www.w3.org/2000/svg" xmlns:xlink="http://www.w3.org/1999/xlink" x="0px" y="0px"
	 viewBox="0 0 511 511" style="enable-background:new 0 0 511 511;" xml:space="preserve">
<style type="text/css">
	.st0{fill:#FFFFFF;}
</style>
<path class="st0" d="M315.1,319.3h27.4v18.2h-27.4V319.3z"/>
<path class="st0" d="M315.1,264.6h54.7v18.2h-54.7V264.6z"/>
<path class="st0" d="M315.1,209.8h27.4v18.2h-27.4V209.8z"/>
<path class="st0" d="M315.1,155.1h54.7v18.2h-54.7V155.1z"/>
<path class="st0" d="M315.1,100.4h27.4v18.2h-27.4V100.4z"/>
<path class="st0" d="M315.1,45.6h54.7v18.2h-54.7V45.6z"/>
<path class="st0" d="M223.8,45.6c0-5-4.1-9.1-9.1-9.1s-9.1,4.1-9.1,9.1v109.5h18.2V45.6z"/>
<path class="st0" d="M229.3,404.5c-3.3-1.5-5.5-4.7-5.5-8.4V173.3h-18.2v222.8c0,3.6-2.1,6.9-5.5,8.4c-18.5,8.1-26.9,29.6-18.8,48
	c8.1,18.5,29.6,26.9,48,18.8s26.9-29.6,18.8-48C244.5,414.9,237.7,408.2,229.3,404.5z M214.7,456.1c-10.1,0-18.2-8.2-18.2-18.2h18.2
	V456.1z"/>
<path class="st0" d="M263.4,383.6c-1.9-1.7-3-4.2-3-6.8V45.6c0-25.2-20.4-45.6-45.6-45.6s-45.6,20.4-45.6,45.6v331.2
	c0,2.6-1.1,5.1-3,6.8c-30,26.9-32.6,73-5.8,103.1c26.9,30,73,32.6,103.1,5.7c30-26.9,32.6-73,5.7-103.1
	C267.3,387.3,265.4,385.4,263.4,383.6z M214.7,492.6c-30.2,0-54.7-24.6-54.7-54.8c0-19.5,10.4-37.5,27.3-47.3V45.6
	c0-15.1,12.3-27.4,27.4-27.4s27.4,12.3,27.4,27.4v344.9c26.2,15.2,35.1,48.7,19.9,74.8C252.2,482.2,234.2,492.6,214.7,492.6z"/>
</svg>
