<?xml version="1.0" encoding="utf-8"?>
<!-- Generator: Adobe Illustrator 22.0.1, SVG Export Plug-In . SVG Version: 6.00 Build 0)  -->
<svg version="1.1" id="Layer_1" xmlns="http://www.w3.org/2000/svg" xmlns:xlink="http://www.w3.org/1999/xlink" x="0px" y="0px"
	 viewBox="0 0 512 512" style="enable-background:new 0 0 512 512;" xml:space="preserve">
<style type="text/css">
	.st0{fill:#FFFFFF;}
</style>
<path class="st0" d="M115.1,74.1L51.9,198.6C33.7,234.3,48,278,83.7,296.1c0.8,0.4,1.7,0.8,2.5,1.2c1.3-3.6,2.6-7.1,4.1-10.6
	l63.2-141.5L115.1,74.1z"/>
<path class="st0" d="M385.3,284.2L240.2,0L108.4,294.8c-33.2,74.3,0.1,161.5,74.4,194.7c2.5,1.1,5.1,2.2,7.7,3.2
	c31.8,12.1,66.8,12.8,99.1,2.1l10.9-3.6c77.2-25.7,119-109.2,93.2-186.5C391.5,297.6,388.6,290.8,385.3,284.2L385.3,284.2z
	 M303.5,454.4c-4.9,2.5-10.8,0.6-13.3-4.3s-0.6-10.8,4.3-13.3c0,0,0.1,0,0.1-0.1c39.1-19.6,63.8-59.4,63.9-103.1
	c0-5.4,4.5-9.8,9.9-9.8h0.1c5.4,0,9.8,4.5,9.8,9.9C378.1,384.8,349.2,431.5,303.5,454.4z"/>
<path class="st0" d="M417.9,452.6h19.8v19.8h-19.8V452.6z"/>
<path class="st0" d="M447.6,412.9h19.8v19.8h-19.8V412.9z"/>
<path class="st0" d="M388.2,492.2H408V512h-19.8V492.2z"/>
</svg>
