<?xml version="1.0" encoding="utf-8"?>
<!-- Generator: Adobe Illustrator 22.0.1, SVG Export Plug-In . SVG Version: 6.00 Build 0)  -->
<svg version="1.1" id="Layer_1" xmlns="http://www.w3.org/2000/svg" xmlns:xlink="http://www.w3.org/1999/xlink" x="0px" y="0px"
	 viewBox="0 0 512 512" style="enable-background:new 0 0 512 512;" xml:space="preserve">
<style type="text/css">
	.st0{fill:#FFFFFF;}
</style>
<path class="st0" d="M185.8,55.5C140,185.8,208.5,328.7,338.9,374.5c26.8,9.4,55.1,14.2,83.5,14.2c2.5,0,5-0.1,7.4-0.2
	c-59.9,111.1-198.5,152.7-309.7,92.8C9,421.3-32.5,282.7,27.4,171.5C60.1,111,118.2,68.3,185.8,55.5z"/>
<path class="st0" d="M490.3,77.4c-22,7.3-39,25.1-45.4,47.4l-6.4,22.6l-6.5-22.6c-6.4-22.3-23.4-40.1-45.4-47.4L370.4,72l17.7-5.9
	c21-7.1,37.4-23.5,44.5-44.5L438.5,4l5.9,17.7c7.1,21,23.5,37.4,44.5,44.5l17.7,5.9L490.3,77.4z"/>
<path class="st0" d="M468.4,258.1h21.8v21.8h-21.8V258.1z"/>
<path class="st0" d="M490.2,160.1H512v21.8h-21.8V160.1z"/>
<path class="st0" d="M424.9,203.7h21.8v21.8h-21.8V203.7z"/>
</svg>
