<?xml version="1.0" encoding="utf-8"?>
<!-- Generator: Adobe Illustrator 22.0.1, SVG Export Plug-In . SVG Version: 6.00 Build 0)  -->
<svg version="1.1" id="Layer_1" xmlns="http://www.w3.org/2000/svg" xmlns:xlink="http://www.w3.org/1999/xlink" x="0px" y="0px"
	 viewBox="0 0 511 511" style="enable-background:new 0 0 511 511;" xml:space="preserve">
<style type="text/css">
	.st0{fill:#FFFFFF;}
</style>
<path class="st0" d="M269.3,119.8l39.3-68.9l15.3,8.7l-39.3,68.9L269.3,119.8z"/>
<path class="st0" d="M97.2,60.9l15.2-8.9l40,68.5l-15.2,8.9L97.2,60.9z"/>
<path class="st0" d="M0,231.3l79.3-0.4l0.1,17.6L0.1,249L0,231.3z"/>
<path class="st0" d="M99.1,418.4l39.3-68.9l15.3,8.7l-39.3,68.9L99.1,418.4z"/>
<path class="st0" d="M204.6,72.8h17.6V108h-17.6V72.8z"/>
<path class="st0" d="M63.9,164l8.8-15.3l30.5,17.7l-8.8,15.3L63.9,164z"/>
<path class="st0" d="M63.8,316.1l30.5-17.6l8.8,15.3l-30.5,17.6L63.8,316.1z"/>
<path class="st0" d="M323.4,166.6L354,149l8.8,15.3l-30.5,17.6L323.4,166.6z"/>
<path class="st0" d="M224.7,299.9c1.6-45.8,32.4-85.3,76.3-98.1c-1.7-4.1-3.6-8.1-5.9-11.9c-26.9-46.3-86.2-62-132.5-35.2
	s-62,86.2-35.2,132.5c12.1,20.9,31.6,36.5,54.6,43.7C192.9,316.7,207.7,305.9,224.7,299.9z M138.3,222.1
	c4.6-20.2,17.4-37.6,35.3-48.1c11.5-6.5,24.5-10.1,37.7-10.2v17.6h-0.1c-26.7,0-49.9,18.5-55.8,44.6L138.3,222.1z M171.4,302.1
	c-10.2-6.4-18.7-15.3-24.8-25.7l15.2-8.9c4.6,8,11.1,14.7,18.9,19.6L171.4,302.1z"/>
<path class="st0" d="M436.1,312.2h-17.6v-8.8c0-48.7-39.5-88.1-88.1-88.1c-48.7,0-88.1,39.5-88.1,88.1l0.4,9.7l-6.7,1.8
	c-39.9,10.8-63.5,51.9-52.7,91.8c8.8,32.6,38.4,55.3,72.2,55.3h180.7c41.4,0,74.9-33.5,74.9-74.9S477.5,312.2,436.1,312.2z
	 M396.4,444.4h-17.6v-17.6h17.6V444.4z M449.3,444.4h-35.2v-17.6h35.2V444.4z"/>
</svg>
