<?xml version="1.0" encoding="utf-8"?>
<!-- Generator: Adobe Illustrator 22.0.1, SVG Export Plug-In . SVG Version: 6.00 Build 0)  -->
<svg version="1.1" id="Layer_1" xmlns="http://www.w3.org/2000/svg" xmlns:xlink="http://www.w3.org/1999/xlink" x="0px" y="0px"
	 viewBox="0 0 511 511" style="enable-background:new 0 0 511 511;" xml:space="preserve">
<style type="text/css">
	.st0{fill:#FFFFFF;}
</style>
<path class="st0" d="M379.2,68.2c0-4.1-2.6-7.6-6.4-8.9l-26.5-8.9c-4.9-1.6-8.8-5.5-10.5-10.4L327,13.5c-1.6-4.9-6.9-7.6-11.9-6
	c-2.8,0.9-5.1,3.2-6,6L300.3,40c-1.6,4.9-5.5,8.8-10.4,10.4l-26.5,8.9c-4.9,1.6-7.6,6.9-6,11.9c0.9,2.8,3.2,5.1,6,6l25.9,8.6
	c5.2,1.7,9.1,5.9,10.6,11.1l9.2,32.2c1.4,5,6.7,7.9,11.6,6.4c3.1-0.9,5.5-3.3,6.4-6.4l9.2-32.2c1.5-5.2,5.5-9.4,10.6-11.1l25.9-8.6
	C376.6,75.9,379.2,72.3,379.2,68.2z"/>
<path class="st0" d="M369.8,201.8h18.8v18.8h-18.8V201.8z"/>
<path class="st0" d="M398.1,117.1h18.8v18.8h-18.8V117.1z"/>
<path class="st0" d="M332.2,154.7H351v18.8h-18.8V154.7z"/>
<path class="st0" d="M0.1,166.7C0.7,101.9,41.7,44.3,102.8,22.5c-27,92.2,25.8,188.8,117.9,215.8c22.8,6.7,46.7,8.6,70.3,5.7
	c-6.1,10.8-13.4,20.9-21.8,29.9c-46.4-11.8-95.1,8.3-119.5,49.6C65.5,320.6-1,251,0.1,166.7L0.1,166.7z M388.6,505.9
	c-0.7,0-1.4-0.1-2.1-0.1l-2.3-0.1c-0.5,0-1.1,0-1.6,0c-1.1,0.1-2.3,0.2-3.4,0.2H68.7c-31.2-0.2-56.3-25.7-56.1-56.9
	c0.2-27.9,20.7-51.4,48.3-55.5c2.9-0.4,5.5-2.1,6.9-4.7c13.6-24.7,41.6-37.7,69.2-32.4c-1.2,5.7-2,11.4-2.3,17.2
	c-0.3,5.2,3.7,9.6,8.9,9.9h0h0.5c5,0,9.2-3.9,9.4-9c2.4-49.3,44.2-87.4,93.6-85c25.9,1.2,49.9,13.6,66,34c3.2,4.1,9.1,4.8,13.2,1.6
	c4.1-3.2,4.8-9.1,1.6-13.2c-5.9-7.4-12.7-14-20.3-19.6c22.3-20.1,51.2-31.1,81.1-31.1c67.6,0,122.4,54.8,122.4,122.4
	S456.2,505.9,388.6,505.9z"/>
</svg>
