<?xml version="1.0" encoding="utf-8"?>
<!-- Generator: Adobe Illustrator 22.0.1, SVG Export Plug-In . SVG Version: 6.00 Build 0)  -->
<svg version="1.1" id="Layer_1" xmlns="http://www.w3.org/2000/svg" xmlns:xlink="http://www.w3.org/1999/xlink" x="0px" y="0px"
	 viewBox="0 0 512 512" style="enable-background:new 0 0 512 512;" xml:space="preserve">
<style type="text/css">
	.st0{fill:#FFFFFF;}
</style>
<path class="st0" d="M140.6,331l-9.3,18.6c-2.3,4.6-0.5,10.2,4.1,12.5c4.6,2.3,10.2,0.5,12.5-4.1c0,0,0-0.1,0.1-0.1l9.3-18.6
	c2.3-4.6,0.5-10.2-4.1-12.5c-4.6-2.3-10.2-0.5-12.5,4.1C140.7,330.9,140.7,330.9,140.6,331z"/>
<path class="st0" d="M78.7,326.8c-4.6-2.3-10.2-0.4-12.5,4.2c0,0,0,0,0,0l-9.3,18.6c-2.3,4.6-0.5,10.2,4.1,12.5
	c4.6,2.3,10.2,0.5,12.5-4.1c0,0,0-0.1,0.1-0.1l9.3-18.6C85.1,334.7,83.3,329.1,78.7,326.8L78.7,326.8z"/>
<path class="st0" d="M112.7,386.8l-9.3,18.6c-2.3,4.6-0.5,10.2,4.1,12.5c4.6,2.3,10.2,0.5,12.5-4.1c0,0,0-0.1,0.1-0.1l9.3-18.6
	c2.3-4.6,0.5-10.2-4.1-12.5c-4.6-2.3-10.2-0.5-12.5,4.1C112.8,386.7,112.7,386.8,112.7,386.8z"/>
<path class="st0" d="M38.2,386.8l-9.3,18.6c-2.3,4.6-0.5,10.2,4.1,12.5c4.6,2.3,10.2,0.5,12.5-4.1c0,0,0-0.1,0.1-0.1l9.3-18.6
	c2.3-4.6,0.5-10.2-4.1-12.5c-4.6-2.3-10.2-0.5-12.5,4.1C38.3,386.7,38.3,386.8,38.2,386.8z"/>
<path class="st0" d="M79.6,473.8c4.6,2.3,10.2,0.4,12.5-4.2l9.3-18.6c2.3-4.6,0.5-10.2-4.1-12.5c-4.6-2.3-10.2-0.5-12.5,4.1
	c0,0,0,0.1-0.1,0.1l-9.3,18.6C73.2,465.9,75,471.5,79.6,473.8C79.6,473.8,79.6,473.8,79.6,473.8z"/>
<path class="st0" d="M5.2,473.8c4.6,2.3,10.2,0.4,12.5-4.2c0,0,0,0,0,0L27,451c2.3-4.6,0.5-10.2-4.1-12.5
	c-4.6-2.3-10.2-0.5-12.5,4.1c0,0,0,0.1-0.1,0.1L1,461.3C-1.3,465.9,0.5,471.5,5.2,473.8C5.1,473.8,5.2,473.8,5.2,473.8z"/>
<path class="st0" d="M466.4,331l-9.3,18.6c-2.3,4.6-0.5,10.2,4.1,12.5c4.6,2.3,10.2,0.5,12.5-4.1c0,0,0-0.1,0.1-0.1l9.3-18.6
	c2.3-4.6,0.5-10.2-4.1-12.5c-4.6-2.3-10.2-0.5-12.5,4.1C466.5,330.9,466.4,330.9,466.4,331z"/>
<path class="st0" d="M404.4,326.8c-4.6-2.3-10.2-0.4-12.5,4.2c0,0,0,0,0,0l-9.3,18.6c-2.3,4.6-0.5,10.2,4.1,12.5
	c4.6,2.3,10.2,0.5,12.5-4.1c0,0,0-0.1,0.1-0.1l9.3-18.6C410.9,334.7,409,329.1,404.4,326.8C404.4,326.8,404.4,326.8,404.4,326.8z"/>
<path class="st0" d="M438.5,386.8l-9.3,18.6c-2.3,4.6-0.5,10.2,4.1,12.5s10.2,0.5,12.5-4.1c0,0,0-0.1,0.1-0.1l9.3-18.6
	c2.3-4.6,0.5-10.2-4.1-12.5c-4.6-2.3-10.2-0.5-12.5,4.1C438.5,386.7,438.5,386.8,438.5,386.8z"/>
<path class="st0" d="M364,386.8l-9.3,18.6c-2.3,4.6-0.5,10.2,4.1,12.5c4.6,2.3,10.2,0.5,12.5-4.1c0,0,0-0.1,0.1-0.1l9.3-18.6
	c2.3-4.6,0.5-10.2-4.1-12.5c-4.6-2.3-10.2-0.5-12.5,4.1C364.1,386.7,364.1,386.8,364,386.8z"/>
<path class="st0" d="M405.4,473.8c4.6,2.3,10.2,0.4,12.5-4.2l9.3-18.6c2.3-4.6,0.5-10.2-4.1-12.5c-4.6-2.3-10.2-0.5-12.5,4.1
	c0,0,0,0.1-0.1,0.1l-9.3,18.6C399,465.9,400.8,471.5,405.4,473.8C405.4,473.8,405.4,473.8,405.4,473.8z"/>
<path class="st0" d="M336.1,442.7l-9.3,18.6c-2.3,4.6-0.5,10.2,4.1,12.5c4.6,2.3,10.2,0.5,12.5-4.1c0,0,0-0.1,0.1-0.1l9.3-18.6
	c2.3-4.6,0.5-10.2-4.1-12.5c-4.6-2.3-10.2-0.5-12.5,4.1C336.1,442.6,336.1,442.6,336.1,442.7z"/>
<path class="st0" d="M446.8,130.4h-27.6l-0.5-8.8c-2.2-38.4-35.1-67.8-73.5-65.6c-10.8,0.6-21.3,3.7-30.7,9.1l-9.5,5.4l-3.9-10.2
	C283.1,12.2,229.4-12.1,181.4,6C145,19.6,121,54.3,121,93.1v37.2h-9.3c-36,0-65.1,29.2-65.2,65.2v9.3c0,36,29.2,65.1,65.2,65.2
	h103.9l8.1-30.3c1.1-4.1,4.8-6.9,9-6.9h83.8c5.1,0,9.3,4.2,9.3,9.3c0,1.3-0.3,2.7-0.9,3.9l-11.1,24h132.9c36,0,65.1-29.2,65.2-65.2
	v-9.3C511.9,159.6,482.8,130.4,446.8,130.4z M111.7,251.4H93.1v-18.6h18.6V251.4z M167.6,251.4h-37.2v-18.6h37.2V251.4z
	 M158.3,102.4h-18.6c0-38.2,25.8-71.6,62.8-81.1l4.7,18C178.4,46.8,158.3,72.7,158.3,102.4z M400.3,251.4h-18.6v-18.6h18.6V251.4z
	 M456.1,251.4h-37.2v-18.6h37.2V251.4z"/>
<path class="st0" d="M325.8,344.5h-56.4l47.1-102.4h-83.8l-37.2,139.6H242L195.5,512L325.8,344.5z"/>
</svg>
