<?xml version="1.0" encoding="utf-8"?>
<!-- Generator: Adobe Illustrator 22.0.1, SVG Export Plug-In . SVG Version: 6.00 Build 0)  -->
<svg version="1.1" id="Layer_1" xmlns="http://www.w3.org/2000/svg" xmlns:xlink="http://www.w3.org/1999/xlink" x="0px" y="0px"
	 viewBox="0 0 512 512" style="enable-background:new 0 0 512 512;" xml:space="preserve">
<style type="text/css">
	.st0{fill:#FFFFFF;}
</style>
<path class="st0" d="M256,0C114.6,0,0,114.6,0,256s114.6,256,256,256s256-114.6,256-256C511.8,114.7,397.3,0.2,256,0z M429.7,237.7
	c0,5.1-4.1,9.1-9.1,9.1H310.9c-5,0-9.1-4.1-9.1-9.1s4.1-9.1,9.1-9.1h109.7C425.6,228.6,429.7,232.7,429.7,237.7z M201.1,146.3h91.4
	c10.1,0,18.3-8.2,18.3-18.3c0-0.1,0-0.2,0-0.3c-0.1-10.1-8.4-18.2-18.5-18c-7.7,0.1-14.4,5-17,12.2c-1.7,4.8-6.9,7.3-11.7,5.6
	c-4.8-1.7-7.3-6.9-5.6-11.7c6.7-19,27.6-29,46.6-22.3c14.5,5.1,24.2,18.7,24.4,34c0.3,20.2-15.8,36.8-36,37.1c-0.2,0-0.4,0-0.5,0
	h-91.4c-5.1,0-9.1-4.1-9.1-9.1C192,150.4,196.1,146.3,201.1,146.3z M137.1,146.3h27.4c5.1,0,9.1,4.1,9.1,9.1c0,5-4.1,9.1-9.1,9.1
	h-27.4c-5.1,0-9.1-4.1-9.1-9.1C128,150.4,132.1,146.3,137.1,146.3z M64,146.3h36.6c5.1,0,9.1,4.1,9.1,9.1c0,5-4.1,9.1-9.1,9.1H64
	c-5.1,0-9.1-4.1-9.1-9.1C54.9,150.4,58.9,146.3,64,146.3z M64,182.9h228.6c30.3,0,54.9-24.6,54.8-54.9c0-30.3-24.6-54.9-54.9-54.8
	c-21.2,0-40.5,12.2-49.6,31.3c-2.3,4.5-7.8,6.3-12.3,4.1c-4.4-2.2-6.2-7.4-4.2-11.9c17.3-36.5,60.9-52,97.4-34.7
	c36.5,17.3,52,60.9,34.7,97.4c-12.1,25.5-37.8,41.8-66.1,41.8H64c-5.1,0-9.1-4.1-9.1-9.1S58.9,182.9,64,182.9z M283.4,237.7
	c0,5.1-4.1,9.1-9.1,9.1h-27.4c-5,0-9.1-4.1-9.1-9.1s4.1-9.1,9.1-9.1h27.4C279.3,228.6,283.4,232.7,283.4,237.7z M219.4,237.7
	c0,5.1-4.1,9.1-9.1,9.1H128c-5.1,0-9.1-4.1-9.1-9.1s4.1-9.1,9.1-9.1h82.3C215.3,228.6,219.4,232.7,219.4,237.7z M64,228.6h27.4
	c5,0,9.1,4.1,9.1,9.1s-4.1,9.1-9.1,9.1H64c-5.1,0-9.1-4.1-9.1-9.1S58.9,228.6,64,228.6z M64,274.3h18.3c5.1,0,9.1,4.1,9.1,9.1
	c0,5-4.1,9.1-9.1,9.1H64c-5.1,0-9.1-4.1-9.1-9.1C54.9,278.4,58.9,274.3,64,274.3z M128,329.1H64c-5.1,0-9.1-4.1-9.1-9.1
	s4.1-9.1,9.1-9.1h64c5.1,0,9.1,4.1,9.1,9.1C137.1,325.1,133.1,329.1,128,329.1z M146.3,292.6h-27.4c-5,0-9.1-4.1-9.1-9.1
	c0-5.1,4.1-9.1,9.1-9.1h27.4c5.1,0,9.1,4.1,9.1,9.1C155.4,288.5,151.3,292.6,146.3,292.6z M192,329.1h-27.4c-5,0-9.1-4.1-9.1-9.1
	s4.1-9.1,9.1-9.1H192c5.1,0,9.1,4.1,9.1,9.1C201.1,325.1,197.1,329.1,192,329.1z M256,329.1h-27.4c-5,0-9.1-4.1-9.1-9.1
	s4.1-9.1,9.1-9.1H256c5.1,0,9.1,4.1,9.1,9.1S261.1,329.1,256,329.1z M283.4,320c0-5.1,4.1-9.1,9.1-9.1H384
	c20.2,0,36.6,16.4,36.6,36.6c0,0.2,0,0.4,0,0.5c-0.4,19.7-16.3,35.6-36,36H384c-15.5,0-29.3-9.8-34.5-24.4c-1.7-4.8,0.8-10,5.6-11.7
	c4.8-1.7,10,0.8,11.7,5.6c2.4,7.5,9.6,12.5,17.5,12.2c9.8-0.3,17.7-8.2,18-18c0.1-10.1-7.9-18.4-18-18.5c-0.1,0-0.2,0-0.3,0h-91.4
	C287.5,329.1,283.4,325.1,283.4,320z M384,420.6c-28.2-0.1-53.9-16.3-66.1-41.8c-2.3-4.5-0.5-10,4-12.3c4.5-2.3,10-0.5,12.3,4
	c0.1,0.1,0.1,0.3,0.2,0.4c13,27.4,45.7,39,73.1,26.1c27.4-13,39-45.7,26.1-73.1c-9.1-19.1-28.4-31.3-49.6-31.4H182.9
	c-5,0-9.1-4.1-9.1-9.1c0-5.1,4.1-9.1,9.1-9.1H384c40.4,0,73.1,32.7,73.1,73.1C457.1,387.8,424.4,420.6,384,420.6z"/>
</svg>
