<?xml version="1.0" encoding="utf-8"?>
<!-- Generator: Adobe Illustrator 22.0.1, SVG Export Plug-In . SVG Version: 6.00 Build 0)  -->
<svg version="1.1" id="Layer_1" xmlns="http://www.w3.org/2000/svg" xmlns:xlink="http://www.w3.org/1999/xlink" x="0px" y="0px"
	 viewBox="0 0 512 512" style="enable-background:new 0 0 512 512;" xml:space="preserve">
<style type="text/css">
	.st0{fill:#FFFFFF;}
</style>
<path class="st0" d="M269.8,163.1c-51.3-7.5-98.9,28.1-106.4,79.4c-7.5,51.3,28.1,98.9,79.4,106.4c51.3,7.5,98.9-28,106.4-79.3
	C356.6,218.3,321.1,170.6,269.8,163.1z M192.2,281.3c-4.6,1.2-9.2-1.6-10.4-6.1c-10-38.8,11.5-78.8,49.4-91.9
	c4.4-1.6,9.3,0.7,10.9,5.2c1.6,4.4-0.8,9.3-5.2,10.9c0,0-0.1,0-0.1,0.1c-29.5,10.1-46.2,41.3-38.5,71.5
	C199.5,275.5,196.8,280.2,192.2,281.3z M244.4,323.8c-1.1,3.6-4.4,6.1-8.2,6.1c-0.8,0-1.7-0.1-2.5-0.4c-12.6-3.8-24-10.9-33.1-20.4
	c-3.3-3.4-3.1-8.8,0.3-12.1c3.4-3.3,8.8-3.1,12.1,0.3c7.1,7.4,15.9,12.9,25.7,15.9C243.2,314.5,245.7,319.3,244.4,323.8z"/>
<path class="st0" d="M362.9,184.8l111-63.8l8.5,14.8l-111,63.8L362.9,184.8z"/>
<path class="st0" d="M247.9,128l0.3-128l17.1,0l-0.3,128L247.9,128z"/>
<path class="st0" d="M30.4,135l8.6-14.8l110.7,64.2l-8.6,14.8L30.4,135z"/>
<path class="st0" d="M30,376.2L141,312.4l8.5,14.8L38.5,391L30,376.2z"/>
<path class="st0" d="M247.2,512l0.3-128l17.1,0l-0.3,128L247.2,512z"/>
<path class="st0" d="M362.6,327.5l8.6-14.8L481.9,377l-8.6,14.8L362.6,327.5z"/>
<path class="st0" d="M312.8,140.9l38.4-66.5l14.8,8.5l-38.4,66.5L312.8,140.9z"/>
<path class="st0" d="M146.4,82.9l14.8-8.5l38.4,66.5l-14.8,8.5L146.4,82.9z"/>
<path class="st0" d="M51.4,247.5h76.8v17.1H51.4V247.5z"/>
<path class="st0" d="M146.4,429.1l38.4-66.5l14.8,8.5l-38.4,66.5L146.4,429.1z"/>
<path class="st0" d="M312.8,371.1l14.8-8.5L366,429l-14.8,8.5L312.8,371.1z"/>
<path class="st0" d="M384.2,247.4H461v17.1h-76.8V247.4z"/>
</svg>
