<?xml version="1.0" encoding="utf-8"?>
<!-- Generator: Adobe Illustrator 22.0.1, SVG Export Plug-In . SVG Version: 6.00 Build 0)  -->
<svg version="1.1" id="Layer_1" xmlns="http://www.w3.org/2000/svg" xmlns:xlink="http://www.w3.org/1999/xlink" x="0px" y="0px"
	 viewBox="0 0 512 512" style="enable-background:new 0 0 512 512;" xml:space="preserve">
<style type="text/css">
	.st0{fill:#FFFFFF;}
</style>
<path class="st0" d="M407.5,250.7H104.4c-34.6-0.2-62.6-28.4-62.4-63.1c0.2-32.2,24.7-59,56.7-62.1c4.2-0.4,7.8-3.3,9.1-7.4
	c12.5-41.4,56.3-64.8,97.7-52.2c7.2,2.2,14,5.3,20.2,9.4c4.8,3.2,11.3,1.8,14.5-3c0.8-1.2,1.3-2.5,1.6-3.9C250,23,293.6-7,339.1,1.4
	c39.6,7.3,68.3,41.8,68.4,82v32.2c0,5.2,3.8,9.6,9,10.3c34.2,5.2,57.8,37.2,52.5,71.5C464.3,227.9,438.3,250.4,407.5,250.7z"/>
<path class="st0" d="M303,459.7h-16.6l11.7-11.7l-14.8-14.8L271.6,445v-16.6h-20.9V445L239,433.2L224.2,448l11.7,11.7h-16.6v20.9
	h16.6l-11.7,11.7l14.8,14.8l11.7-11.7V512h20.9v-16.6l11.7,11.7l14.8-14.8l-11.7-11.7H303V459.7z"/>
<path class="st0" d="M438.9,344.8h-16.6L434,333l-14.8-14.8L407.5,330v-16.6h-20.9V330l-11.7-11.7L360.1,333l11.7,11.7h-16.6v20.9
	h16.6l-11.7,11.7l14.8,14.8l11.7-11.7V397h20.9v-16.6l11.7,11.7l14.8-14.8l-11.7-11.7h16.6V344.8z"/>
<path class="st0" d="M177.5,365.7h-16.6l11.7-11.7l-14.8-14.8l-11.7,11.7v-16.6h-20.9v16.6l-11.7-11.7l-14.8,14.8l11.7,11.7H93.9
	v20.9h16.6l-11.7,11.7l14.8,14.8l11.7-11.7v16.6h20.9v-16.6l11.7,11.7l14.8-14.8l-11.7-11.7h16.6V365.7z"/>
</svg>
