<?xml version="1.0" encoding="utf-8"?>
<!-- Generator: Adobe Illustrator 22.0.1, SVG Export Plug-In . SVG Version: 6.00 Build 0)  -->
<svg version="1.1" id="Layer_1" xmlns="http://www.w3.org/2000/svg" xmlns:xlink="http://www.w3.org/1999/xlink" x="0px" y="0px"
	 viewBox="0 0 511 511" style="enable-background:new 0 0 511 511;" xml:space="preserve">
<style type="text/css">
	.st0{fill:#FFFFFF;}
</style>
<path class="st0" d="M282.7,338.1c-5.4-2.7-11.9-0.5-14.6,4.9c0,0,0,0,0,0l-10.9,21.7c-2.7,5.3-0.6,11.9,4.8,14.6
	c5.4,2.7,11.9,0.6,14.6-4.8c0-0.1,0.1-0.1,0.1-0.1l10.9-21.7C290.3,347.4,288.1,340.8,282.7,338.1L282.7,338.1z"/>
<path class="st0" d="M369.7,338.1c-5.4-2.7-11.9-0.5-14.6,4.9c0,0,0,0,0,0l-10.9,21.7c-2.7,5.3-0.6,11.9,4.8,14.6
	c5.3,2.7,11.9,0.6,14.6-4.8c0-0.1,0.1-0.1,0.1-0.1l10.9-21.7C377.2,347.4,375.1,340.8,369.7,338.1L369.7,338.1z"/>
<path class="st0" d="M440.9,380.5c4.1,0,7.9-2.3,9.8-6l10.9-21.7c2.7-5.3,0.6-11.9-4.8-14.6s-11.9-0.6-14.6,4.8
	c0,0.1-0.1,0.1-0.1,0.1l-10.9,21.7c-2.7,5.4-0.5,11.9,4.9,14.6C437.6,380.1,439.3,380.5,440.9,380.5z"/>
<path class="st0" d="M189.7,374.5l10.9-21.7c2.7-5.3,0.6-11.9-4.7-14.6s-11.9-0.6-14.6,4.8c0,0-0.1,0.1-0.1,0.1l-10.9,21.7
	c-2.7,5.3-0.6,11.9,4.7,14.6c5.3,2.7,11.9,0.6,14.6-4.7C189.7,374.6,189.7,374.5,189.7,374.5z"/>
<path class="st0" d="M93.1,380.5c4.1,0,7.9-2.3,9.7-6l10.9-21.7c2.7-5.3,0.6-11.9-4.7-14.6s-11.9-0.6-14.6,4.8c0,0-0.1,0.1-0.1,0.1
	l-10.9,21.7c-2.7,5.4-0.5,11.9,4.9,14.6C89.7,380.1,91.4,380.5,93.1,380.5z"/>
<path class="st0" d="M235.5,408.2L224.7,430c-2.7,5.3-0.6,11.9,4.8,14.6c5.3,2.7,11.9,0.6,14.6-4.7c0-0.1,0.1-0.1,0.1-0.2l10.9-21.7
	c2.7-5.3,0.6-11.9-4.8-14.6c-5.3-2.7-11.9-0.6-14.6,4.8C235.6,408.1,235.6,408.2,235.5,408.2z"/>
<path class="st0" d="M322.5,408.2L311.6,430c-2.7,5.3-0.6,11.9,4.8,14.6s11.9,0.6,14.6-4.8c0,0,0.1-0.1,0.1-0.1l10.9-21.7
	c2.7-5.3,0.6-11.9-4.8-14.6c-5.3-2.7-11.9-0.6-14.6,4.8C322.5,408.1,322.5,408.2,322.5,408.2z"/>
<path class="st0" d="M408.3,445.7c4.1,0,7.9-2.3,9.8-6l10.9-21.7c2.7-5.3,0.6-11.9-4.8-14.6c-5.3-2.7-11.9-0.6-14.6,4.8
	c0,0.1-0.1,0.1-0.1,0.1L398.6,430c-2.7,5.4-0.5,11.9,4.9,14.6C405,445.3,406.6,445.7,408.3,445.7z"/>
<path class="st0" d="M157.1,439.7l10.9-21.7c2.7-5.3,0.6-11.9-4.7-14.6c-5.4-2.7-11.9-0.6-14.6,4.8c0,0-0.1,0.1-0.1,0.1L137.7,430
	c-2.7,5.3-0.6,11.9,4.7,14.6c5.3,2.7,11.9,0.6,14.6-4.7C157.1,439.8,157.1,439.7,157.1,439.7z"/>
<path class="st0" d="M76.2,403.4c-5.4-2.7-11.9-0.5-14.6,4.9c0,0,0,0,0,0L50.7,430c-2.7,5.3-0.6,11.9,4.8,14.6
	c5.3,2.7,11.9,0.6,14.6-4.7c0-0.1,0.1-0.1,0.1-0.2L81,417.9C83.7,412.6,81.6,406,76.2,403.4L76.2,403.4z"/>
<path class="st0" d="M196.9,509.8c5.4,2.7,11.9,0.5,14.6-4.9l10.9-21.7c2.7-5.3,0.6-11.9-4.8-14.6s-11.9-0.6-14.6,4.8
	c0,0-0.1,0.1-0.1,0.1L192,495.2C189.4,500.6,191.5,507.1,196.9,509.8C196.9,509.8,196.9,509.8,196.9,509.8z"/>
<path class="st0" d="M283.9,509.8c5.4,2.7,11.9,0.5,14.6-4.9l10.9-21.7c2.7-5.3,0.6-11.9-4.8-14.6c-5.4-2.7-11.9-0.6-14.6,4.8
	c0,0.1-0.1,0.1-0.1,0.1L279,495.2C276.3,500.6,278.5,507.1,283.9,509.8C283.9,509.8,283.9,509.8,283.9,509.8z"/>
<path class="st0" d="M370.8,509.8c5.4,2.7,11.9,0.5,14.6-4.9l10.9-21.7c2.7-5.3,0.6-11.9-4.8-14.6s-11.9-0.6-14.6,4.8
	c0,0.1-0.1,0.1-0.1,0.1L366,495.2C363.3,500.6,365.5,507.1,370.8,509.8C370.8,509.8,370.8,509.8,370.8,509.8z"/>
<path class="st0" d="M130.5,468.6c-5.4-2.7-11.9-0.5-14.6,4.9c0,0,0,0,0,0l-10.9,21.7c-2.7,5.3-0.6,11.9,4.8,14.6
	c5.3,2.7,11.9,0.6,14.6-4.7c0-0.1,0.1-0.1,0.1-0.2l10.9-21.7C138.1,477.8,135.9,471.3,130.5,468.6
	C130.5,468.6,130.5,468.6,130.5,468.6z"/>
<path class="st0" d="M23,509.8c5.4,2.7,11.9,0.5,14.6-4.9l10.9-21.7c2.7-5.3,0.6-11.9-4.7-14.6c-5.4-2.7-11.9-0.6-14.6,4.8
	c0,0.1-0.1,0.1-0.1,0.1l-10.9,21.7C15.4,500.6,17.6,507.1,23,509.8C23,509.8,23,509.8,23,509.8z"/>
<path class="st0" d="M413.8,130.4h-16.3v-10.9C397.4,53.5,343.9,0,277.9,0c-66,0-119.6,53.5-119.6,119.6v10.9H142
	c-45,0-81.5,36.5-81.5,81.5c0,45,36.5,81.5,81.5,81.5h271.8c45,0,81.5-36.5,81.5-81.5C495.3,167,458.8,130.4,413.8,130.4z
	 M201.8,119.6H180c0-44.6,30.2-83.6,73.4-94.8l5.4,21C225.2,54.5,201.8,84.9,201.8,119.6z M375.7,271.8H354V250h21.7V271.8z
	 M440.9,271.8h-43.5V250h43.5V271.8z"/>
</svg>
