<?xml version="1.0" encoding="utf-8"?>
<!-- Generator: Adobe Illustrator 22.0.1, SVG Export Plug-In . SVG Version: 6.00 Build 0)  -->
<svg version="1.1" id="Layer_1" xmlns="http://www.w3.org/2000/svg" xmlns:xlink="http://www.w3.org/1999/xlink" x="0px" y="0px"
	 viewBox="0 0 512 512" style="enable-background:new 0 0 512 512;" xml:space="preserve">
<style type="text/css">
	.st0{fill:#FFFFFF;}
</style>
<path class="st0" d="M264.9,326.6h17.7V373h-17.7V326.6z"/>
<path class="st0" d="M335.5,44.1h3.1c7.1-15.3,25.2-21.9,40.5-14.8c0.2,0.1,0.4,0.2,0.6,0.3V13.2c0-7.3-5.9-13.2-13.2-13.2
	s-13.2,5.9-13.2,13.2v4.4c0,4.9-3.9,8.8-8.8,8.8h-8.8c-4.9,0-8.8,3.9-8.8,8.8S330.6,44.1,335.5,44.1z"/>
<path class="st0" d="M123.6,150.1c4.9,0,8.8,3.9,8.8,8.8c0,4.9-4,8.8-8.8,8.8c-9.8,0-17.7,7.9-17.7,17.7s7.9,17.7,17.7,17.7h45.8
	c4.3,0,7.9,3,8.7,7.2c7.7,41.8,44.2,72.2,86.7,72.2h26.5c48.7-0.1,88.2-39.5,88.3-88.3V57.4c0-7.3-5.9-13.2-13.2-13.2
	s-13.2,5.9-13.2,13.2v22.1c0,1-0.2,2.1-0.5,3l-28.9,79.4c-1.3,3.5-4.6,5.8-8.3,5.8H256c-4.9,0-8.8-3.9-8.8-8.8v-34.6
	c0-34.5-28-62.5-62.5-62.5h-114c-9.8,0-17.7,7.9-17.7,17.7s7.9,17.7,17.7,17.7h17.7c4.9,0,8.8,3.9,8.8,8.8c0,4.9-3.9,8.8-8.8,8.8
	c-9.8,0-17.7,7.9-17.7,17.7s7.9,17.7,17.7,17.7H123.6z"/>
<path class="st0" d="M397.3,68.3v15.4l24-10.3L397.3,68.3z"/>
<path class="st0" d="M291.3,397.2c0,9.8-7.9,17.7-17.7,17.7c-9.8,0-17.7-7.9-17.7-17.7s7.9-17.7,17.7-17.7
	C283.4,379.6,291.3,387.5,291.3,397.2z"/>
<path class="st0" d="M264.9,300.1c-3,0-5.9-0.1-8.8-0.4v0.4c0,9.8,7.9,17.7,17.7,17.7c9.8,0,17.7-7.9,17.7-17.7H264.9z"/>
<path class="st0" d="M454.8,451.5L410.6,425c-4.2-2.4-9.6-1-12.1,3.2c-2.4,4.1-1.1,9.4,3,11.9l16.8,10.1H282.5v-27h-17.7v27H144.6
	l-8.8-17.7h-15.6l8.8,17.7h-19.7l-8.8-17.7H84.9l8.8,17.7h-5.5v17.7l-8.8,26.5h53l12.2-26.5h120.2V512h17.7v-44.1h135.9L401.6,478
	c-4.2,2.4-5.7,7.8-3.2,12.1c2.4,4.2,7.8,5.7,12.1,3.2c0.1-0.1,0.2-0.1,0.3-0.2l44.1-26.5c4.2-2.5,5.5-7.9,3-12.1
	C457.1,453.3,456,452.2,454.8,451.5z"/>
</svg>
