<?xml version="1.0" encoding="utf-8"?>
<!-- Generator: Adobe Illustrator 22.0.1, SVG Export Plug-In . SVG Version: 6.00 Build 0)  -->
<svg version="1.1" id="Layer_1" xmlns="http://www.w3.org/2000/svg" xmlns:xlink="http://www.w3.org/1999/xlink" x="0px" y="0px"
	 viewBox="0 0 511 511" style="enable-background:new 0 0 511 511;" xml:space="preserve">
<style type="text/css">
	.st0{fill:#FFFFFF;}
</style>
<path class="st0" d="M397.4,234.8h17.3v17.3h-17.3V234.8z"/>
<path class="st0" d="M380.1,165.5h17.3v17.3h-17.3V165.5z"/>
<path class="st0" d="M388.7,295.4h17.3v17.3h-17.3V295.4z"/>
<path class="st0" d="M68.3,286.8h17.3v17.3H68.3V286.8z"/>
<path class="st0" d="M440.7,191.5H458v17.3h-17.3V191.5z"/>
<path class="st0" d="M-1,113.6h60.6v17.3H-1V113.6z"/>
<path class="st0" d="M25,70.3h60.6v17.3H25V70.3z"/>
<path class="st0" d="M16.3,182.8h52v17.3h-52V182.8z"/>
<path class="st0" d="M154.9,373.4h26v17.3h-26V373.4z"/>
<path class="st0" d="M102.9,373.4h34.6v17.3h-34.6V373.4z"/>
<path class="st0" d="M137.6,425.4h34.6v17.3h-34.6V425.4z"/>
<path class="st0" d="M77,425.4h43.3v17.3H77V425.4z"/>
<path class="st0" d="M367.1,113.6l65-86.6H169.6l-31.7,84.4c-5.5,14.6-8.8,29.9-10,45.5h79v17.3h-79.5
	c0.9,38.1,14.9,74.8,39.5,103.9h92v17.3h-75.1c1.5,1.3,2.9,2.7,4.5,4c33.8,27.7,53.3,69.2,53.3,112.9v43.2l61.3-64.8
	c31.7-33.6,43.1-81.6,29.8-125.9l-9.1-30.1h-21.4v-17.3h16.8c-3.5-20.7,1.6-41.8,14.2-58.6l21-28h-17.3v-17.3H367.1z M224.2,156.9
	h17.3v17.3h-17.3V156.9z M198.2,234.8v-17.3h86.6v17.3H198.2z M293.5,295.4h-17.3v-17.3h17.3V295.4z M319.5,130.9h-86.6v-17.3h86.6
	V130.9z"/>
<path class="st0" d="M432.1,425.4l17.3-26h43.3l8.7,26H432.1z M448.7,382l44-69.3L510,382H448.7z"/>
<path class="st0" d="M354.4,440.6l-8.7,34.6c-1.2,4.6,1.7,9.3,6.3,10.5c0.7,0.2,1.4,0.3,2.1,0.3h43.3c3.7,0,7-2.4,8.2-5.9l8.7-26
	c0.8-2.5,0.5-5.3-1-7.5l-17.3-26c-2.7-4-8-5.1-12-2.4c0,0,0,0,0,0l-26,17.3C356.2,436.7,354.9,438.5,354.4,440.6z"/>
<path class="st0" d="M458,486c-0.8,0-1.6-0.1-2.4-0.3c-4.6-1.3-7.3-6.1-5.9-10.7l17.3-60.6c1.1-4.6,5.8-7.5,10.5-6.4
	c4.6,1.1,7.5,5.8,6.4,10.5c-0.1,0.2-0.1,0.4-0.2,0.6l-17.3,60.6C465.3,483.4,461.9,486,458,486z"/>
</svg>
