<?xml version="1.0" encoding="utf-8"?>
<!-- Generator: Adobe Illustrator 22.0.1, SVG Export Plug-In . SVG Version: 6.00 Build 0)  -->
<svg version="1.1" id="Layer_1" xmlns="http://www.w3.org/2000/svg" xmlns:xlink="http://www.w3.org/1999/xlink" x="0px" y="0px"
	 viewBox="0 0 512 512" style="enable-background:new 0 0 512 512;" xml:space="preserve">
<style type="text/css">
	.st0{fill:#FFFFFF;}
</style>
<path class="st0" d="M503.5,319.7c-16,0.4-31.8-2.4-46.7-8.1c-16.7-6.3-34.4-9.4-52.3-9c-17.8-0.4-35.6,2.7-52.3,9
	c-4.2,1.4-8.4,2.9-13,4.1c-4.6,1.2-7.3,5.9-6,10.5c1.2,4.6,5.9,7.3,10.5,6c5.1-1.4,9.6-2.9,14.2-4.5c14.9-5.7,30.8-8.4,46.7-8.1
	c16-0.4,31.8,2.4,46.7,8.1c16.7,6.3,34.4,9.4,52.3,9c4.7,0,8.5-3.8,8.5-8.5C512,323.5,508.2,319.7,503.5,319.7z"/>
<path class="st0" d="M305.4,319.7c-15.9,0.4-31.8-2.4-46.7-8.1c-16.7-6.3-34.4-9.4-52.2-9c-17.8-0.4-35.6,2.7-52.3,9
	c-6.3,2.3-12.8,4.2-19.4,5.6c-4.6,1.1-7.5,5.6-6.4,10.2c1,4.4,5.3,7.3,9.8,6.5c7.3-1.6,14.5-3.7,21.5-6.2
	c14.9-5.7,30.8-8.4,46.7-8.1c15.9-0.4,31.8,2.4,46.7,8.1c16.7,6.3,34.4,9.4,52.2,9c4.7,0,8.5-3.8,8.5-8.5
	C314,323.5,310.1,319.7,305.4,319.7z"/>
<path class="st0" d="M8.5,319.7c15.9-0.4,31.8,2.4,46.7,8.1c15,5.7,30.9,8.7,46.9,8.9h0.2c4.7,0.1,8.6-3.7,8.6-8.4
	c0.1-4.7-3.7-8.6-8.4-8.6c-14.3-0.2-28.5-2.9-41.8-8c-16.7-6.3-34.4-9.4-52.3-9c-4.7,0-8.5,3.8-8.5,8.5C0,315.8,3.8,319.7,8.5,319.7
	z"/>
<path class="st0" d="M503.5,370.9c-16,0.4-31.8-2.4-46.7-8.1c-3.4-1.2-6.8-2.4-10.6-3.5c-4.5-1.3-9.2,1.4-10.5,6
	c-1.2,4.4,1.3,9,5.6,10.4c3.4,1,6.7,2.1,9.9,3.3c16.7,6.3,34.4,9.4,52.3,9c4.7,0,8.5-3.8,8.5-8.5C512,374.7,508.2,370.9,503.5,370.9
	z"/>
<path class="st0" d="M404.5,370.9c1.7,0,3.4,0,4.9,0.1c4.6,0.2,8.5-3.4,8.7-8.1c0-0.1,0-0.2,0-0.3c0.1-4.7-3.6-8.6-8.3-8.7
	c0,0,0,0,0,0c-1.7-0.1-3.5-0.1-5.3-0.1c-17.8-0.4-35.6,2.7-52.3,9c-14.9,5.7-30.8,8.4-46.8,8.1c-15.9,0.4-31.8-2.4-46.7-8.1
	c-5.8-2.1-11.8-3.9-17.8-5.4c-4.5-1.3-9.2,1.4-10.5,6c-1.3,4.5,1.4,9.2,6,10.5c0.2,0.1,0.4,0.1,0.6,0.1c5.5,1.4,10.9,3,16.2,4.9
	c16.7,6.3,34.4,9.4,52.2,9c17.8,0.4,35.6-2.7,52.3-9C372.6,373.2,388.5,370.5,404.5,370.9z"/>
<path class="st0" d="M206.5,370.9c4.7,0,8.5-3.8,8.5-8.5c0-4.7-3.8-8.5-8.5-8.5c-17.8-0.4-35.6,2.7-52.3,9
	c-14.9,5.7-30.8,8.4-46.7,8.1c-9.7,0.1-19.4-0.8-28.9-2.7c-4.6-1.1-9.2,1.7-10.3,6.2c-1.1,4.6,1.7,9.2,6.2,10.3
	c0.1,0,0.3,0.1,0.4,0.1c10.7,2.2,21.6,3.3,32.5,3.1c17.8,0.4,35.6-2.7,52.3-9C174.7,373.2,190.6,370.5,206.5,370.9z"/>
<path class="st0" d="M8.5,370.9c10.8-0.2,21.6,1,32.1,3.5c0.7,0.2,1.4,0.3,2.1,0.3c4.7,0,8.5-3.9,8.5-8.6c0-3.9-2.7-7.3-6.4-8.2
	c-11.9-2.9-24-4.2-36.2-4c-4.7,0-8.5,3.8-8.5,8.5C0,367,3.8,370.9,8.5,370.9z"/>
<path class="st0" d="M503.5,422.1c-16,0.4-31.8-2.4-46.7-8.1c-16.7-6.3-34.4-9.4-52.3-9c-17.8-0.4-35.6,2.7-52.3,9
	c-4.2,1.4-8.4,2.9-13,4.1c-4.6,1.2-7.3,5.9-6,10.5c1.2,4.6,5.9,7.3,10.5,6c5.1-1.4,9.6-2.9,14.2-4.5c14.9-5.7,30.8-8.4,46.7-8.1
	c16-0.4,31.8,2.4,46.7,8.1c16.7,6.3,34.4,9.4,52.3,9c4.7,0,8.5-3.8,8.5-8.5C512,425.9,508.2,422.1,503.5,422.1z"/>
<path class="st0" d="M305.4,422.1c-15.9,0.4-31.8-2.4-46.7-8.1c-16.7-6.3-34.4-9.4-52.2-9c-17.8-0.4-35.6,2.7-52.3,9
	c-3.7,1.3-7.4,2.6-11.5,3.7c-4.5,1.3-7.2,6-5.9,10.5c1.3,4.5,6,7.2,10.5,5.9c0,0,0.1,0,0.1,0c4.4-1.2,8.4-2.6,12.4-4
	c14.9-5.7,30.8-8.4,46.7-8.1c15.9-0.4,31.8,2.4,46.7,8.1c16.7,6.3,34.4,9.4,52.2,9c4.7,0,8.5-3.8,8.5-8.5
	C314,425.9,310.1,422.1,305.4,422.1z"/>
<path class="st0" d="M8.5,422.1c16.6-0.3,33,2.5,48.6,8.1c17.3,6.2,35.5,9.2,53.8,8.9c4.7,0,8.5-3.8,8.5-8.5c0-4.7-3.8-8.5-8.5-8.5
	c-16.6,0.3-33-2.5-48.6-8.1c-17.3-6.2-35.5-9.2-53.8-8.9c-4.7,0-8.5,3.8-8.5,8.5C0,418.2,3.8,422.1,8.5,422.1z"/>
<path class="st0" d="M503.5,473.3c-16,0.4-31.8-2.4-46.7-8.1c-12.2-4.6-25-7.5-37.9-8.5c-4.6-0.4-8.8,3-9.2,7.7c0,0.1,0,0.1,0,0.2
	c-0.4,4.7,3.1,8.8,7.8,9.2c0,0,0,0,0,0c11.5,0.9,22.9,3.5,33.7,7.6c16.7,6.3,34.5,9.4,52.3,9c4.7,0,8.5-3.8,8.5-8.5
	C512,477.1,508.2,473.3,503.5,473.3z"/>
<path class="st0" d="M275,470.2c-4.6-1.1-9.2,1.8-10.3,6.4c-1.1,4.6,1.8,9.2,6.4,10.3c11.3,2.5,22.8,3.7,34.3,3.6
	c17.8,0.4,35.6-2.7,52.3-9c8.8-3.3,18-5.7,27.4-6.9c4.7-0.6,8-4.9,7.4-9.5c-0.6-4.7-4.9-8-9.5-7.4c-10.5,1.4-20.8,4-30.8,7.8
	c-14.9,5.7-30.8,8.4-46.7,8.1C295.2,473.4,285,472.4,275,470.2z"/>
<path class="st0" d="M247.2,470.1c1.1-4.6-1.8-9.2-6.3-10.2c-11.3-2.6-22.8-3.8-34.4-3.6c-17.8-0.4-35.6,2.7-52.3,9
	c-14.9,5.7-30.8,8.4-46.7,8.1c-7,0.1-14-0.4-21-1.3c-4.7-0.7-9,2.4-9.8,7.1c-0.7,4.7,2.4,9,7.1,9.8c0.1,0,0.2,0,0.3,0
	c7.7,1,15.5,1.5,23.3,1.5c17.8,0.4,35.6-2.7,52.3-9c14.9-5.7,30.8-8.4,46.7-8.1c10.3-0.2,20.5,0.9,30.5,3.1
	C241.6,477.4,246.1,474.6,247.2,470.1z"/>
<path class="st0" d="M48.6,479.1c0.8,0.3,1.7,0.4,2.6,0.4c4.7,0,8.5-3.8,8.5-8.5c0-3.7-2.4-7-5.9-8.1c-14.6-4.8-29.9-7-45.3-6.6
	c-4.7,0-8.5,3.8-8.5,8.5c0,4.7,3.8,8.5,8.5,8.5C22.1,472.9,35.7,474.9,48.6,479.1z"/>
<path class="st0" d="M128,277h290.1c37.7-0.2,68.1-30.9,68-68.6c-0.1-32.3-22.8-60-54.4-66.6c-16.9-27.2-49.1-40.7-80.4-33.7
	C331.1,57.9,274,33.5,223.7,53.6c-2.5,1-4.9,2.1-7.3,3.3C192.8,33.8,161,20.9,128,21C57.3,21,0,78.3,0,149S57.3,277,128,277z"/>
</svg>
