<?xml version="1.0" encoding="utf-8"?>
<!-- Generator: Adobe Illustrator 22.0.1, SVG Export Plug-In . SVG Version: 6.00 Build 0)  -->
<svg version="1.1" id="Layer_1" xmlns="http://www.w3.org/2000/svg" xmlns:xlink="http://www.w3.org/1999/xlink" x="0px" y="0px"
	 viewBox="0 0 512 512" style="enable-background:new 0 0 512 512;" xml:space="preserve">
<style type="text/css">
	.st0{fill:#FFFFFF;}
</style>
<path class="st0" d="M115.3,44.1c4.9,0,8.8-4,8.8-8.8V8.8c0-4.9-4-8.8-8.8-8.8s-8.8,4-8.8,8.8v26.5
	C106.4,40.2,110.4,44.1,115.3,44.1z"/>
<path class="st0" d="M11.5,73.9l23,13.2c4.2,2.5,9.6,1.1,12.1-3.2c2.5-4.2,1.1-9.6-3.1-12.1c0,0-0.1,0-0.1-0.1l-23-13.2
	c-4.2-2.5-9.6-1.1-12.1,3.2c-2.5,4.2-1.1,9.6,3.1,12.1C11.4,73.8,11.4,73.8,11.5,73.9z"/>
<path class="st0" d="M15.9,189.8c1.6,0,3.1-0.4,4.4-1.2l23-13.2c4.2-2.5,5.6-7.9,3.2-12.1c-2.4-4.2-7.8-5.6-12-3.2l-23,13.2
	c-4.2,2.4-5.7,7.8-3.2,12.1C9.8,188.1,12.7,189.8,15.9,189.8z"/>
<path class="st0" d="M215.4,189.8c-1.5,0-3.1-0.4-4.4-1.2L188,175.4c-4.2-2.5-5.6-7.9-3.2-12.1c2.4-4.2,7.8-5.6,12-3.2l22.9,13.2
	c4.2,2.4,5.7,7.8,3.2,12.1C221.4,188.1,218.5,189.8,215.4,189.8z"/>
<path class="st0" d="M124.1,238.3v-26.5c0-4.9-4-8.8-8.8-8.8s-8.8,4-8.8,8.8v26.5c0,4.9,4,8.8,8.8,8.8S124.1,243.2,124.1,238.3z"/>
<path class="st0" d="M177.1,123.6c0-34.1-27.7-61.8-61.8-61.8s-61.8,27.7-61.8,61.8c0,34.1,27.7,61.8,61.8,61.8
	C149.4,185.3,177,157.7,177.1,123.6z M115.3,110.3c-7.3,0-13.2,5.9-13.2,13.2c0,4.9-4,8.8-8.8,8.8s-8.8-4-8.8-8.8
	c0-17.1,13.8-30.9,30.9-30.9c4.9,0,8.8,3.9,8.8,8.8S120.1,110.3,115.3,110.3z"/>
<path class="st0" d="M439.8,194.2h-13.2v-8.8c0-53.6-43.5-97.1-97.1-97.1s-97.1,43.5-97.1,97.1v8.8h-13.2
	c-36.6,0-66.2,29.6-66.2,66.2s29.6,66.2,66.2,66.2h220.7c36.6,0,66.2-29.6,66.2-66.2S476.3,194.2,439.8,194.2z M267.6,185.4H250
	c0-36.2,24.5-67.9,59.6-76.9l4.4,17.1C286.7,132.6,267.6,157.2,267.6,185.4z M408.9,309h-17.7v-17.7h17.7V309z M461.8,309h-35.3
	v-17.7h35.3V309z"/>
<path class="st0" d="M191.7,88.3c1.5,0,3.1-0.4,4.4-1.2l22.9-13.2c4.2-2.4,5.7-7.8,3.3-12s-7.8-5.7-12-3.3c0,0-0.1,0-0.1,0.1
	l-22.9,13.2c-4.2,2.4-5.7,7.8-3.2,12.1C185.7,86.6,188.6,88.3,191.7,88.3z"/>
<path class="st0" d="M258.8,406.1c4.9,0,8.8-4,8.8-8.8v-26.5c0-4.9-4-8.8-8.8-8.8s-8.8,4-8.8,8.8v26.5
	C250,402.1,253.9,406.1,258.8,406.1z"/>
<path class="st0" d="M250,503.2c0,4.9,4,8.8,8.8,8.8s8.8-4,8.8-8.8v-8.8c0-4.9-4-8.8-8.8-8.8s-8.8,4-8.8,8.8V503.2z"/>
<path class="st0" d="M250,459c0,4.9,4,8.8,8.8,8.8s8.8-4,8.8-8.8v-26.5c0-4.9-4-8.8-8.8-8.8s-8.8,4-8.8,8.8V459z"/>
<path class="st0" d="M197,503.2c0,4.9,4,8.8,8.8,8.8s8.8-4,8.8-8.8v-26.5c0-4.9-4-8.8-8.8-8.8s-8.8,3.9-8.8,8.8V503.2z"/>
<path class="st0" d="M197,441.4c0,4.9,4,8.8,8.8,8.8s8.8-4,8.8-8.8v-17.7c0-4.9-4-8.8-8.8-8.8s-8.8,3.9-8.8,8.8V441.4z"/>
<path class="st0" d="M205.8,361.9c-4.9,0-8.8,4-8.8,8.8v17.7c0,4.9,3.9,8.8,8.8,8.8c4.9,0,8.8-4,8.8-8.8v-17.7
	C214.7,365.9,210.7,361.9,205.8,361.9z"/>
<path class="st0" d="M364.7,406.1c4.9,0,8.8-4,8.8-8.8v-26.5c0-4.9-4-8.8-8.8-8.8s-8.8,4-8.8,8.8v26.5
	C355.9,402.1,359.8,406.1,364.7,406.1z"/>
<path class="st0" d="M355.9,503.2c0,4.9,4,8.8,8.8,8.8s8.8-4,8.8-8.8v-8.8c0-4.9-4-8.8-8.8-8.8s-8.8,4-8.8,8.8V503.2z"/>
<path class="st0" d="M355.9,459c0,4.9,4,8.8,8.8,8.8s8.8-4,8.8-8.8v-26.5c0-4.9-4-8.8-8.8-8.8s-8.8,4-8.8,8.8V459z"/>
<path class="st0" d="M302.9,503.2c0,4.9,4,8.8,8.8,8.8s8.8-4,8.8-8.8v-26.5c0-4.9-4-8.8-8.8-8.8s-8.8,3.9-8.8,8.8V503.2z"/>
<path class="st0" d="M302.9,441.4c0,4.9,4,8.8,8.8,8.8s8.8-4,8.8-8.8v-17.7c0-4.9-4-8.8-8.8-8.8s-8.8,3.9-8.8,8.8V441.4z"/>
<path class="st0" d="M311.8,397.2c4.9,0,8.8-4,8.8-8.8v-17.7c0-4.9-4-8.8-8.8-8.8s-8.8,4-8.8,8.8v17.7
	C302.9,393.3,306.9,397.2,311.8,397.2z"/>
<path class="st0" d="M479.5,370.8c0-4.9-3.9-8.8-8.8-8.8c-4.9,0-8.8,4-8.8,8.8v26.5c0,4.9,3.9,8.8,8.8,8.8c4.9,0,8.8-4,8.8-8.8
	V370.8z"/>
<path class="st0" d="M470.7,485.5c-4.9,0-8.8,4-8.8,8.8v8.8c0,4.9,3.9,8.8,8.8,8.8c4.9,0,8.8-4,8.8-8.8v-8.8
	C479.5,489.5,475.5,485.5,470.7,485.5z"/>
<path class="st0" d="M479.5,432.6c0-4.9-3.9-8.8-8.8-8.8c-4.9,0-8.8,4-8.8,8.8V459c0,4.9,3.9,8.8,8.8,8.8c4.9,0,8.8-4,8.8-8.8V432.6
	z"/>
<path class="st0" d="M417.7,467.9c-4.9,0-8.8,4-8.8,8.8v26.5c0,4.9,4,8.8,8.8,8.8s8.8-4,8.8-8.8v-26.5
	C426.5,471.8,422.6,467.9,417.7,467.9z"/>
<path class="st0" d="M426.5,423.7c0-4.9-4-8.8-8.8-8.8s-8.8,3.9-8.8,8.8v17.7c0,4.9,4,8.8,8.8,8.8s8.8-4,8.8-8.8V423.7z"/>
<path class="st0" d="M426.5,370.8c0-4.9-4-8.8-8.8-8.8s-8.8,4-8.8,8.8v17.7c0,4.9,4,8.8,8.8,8.8s8.8-4,8.8-8.8V370.8z"/>
</svg>
