<?xml version="1.0" encoding="utf-8"?>
<!-- Generator: Adobe Illustrator 22.0.1, SVG Export Plug-In . SVG Version: 6.00 Build 0)  -->
<svg version="1.1" id="Layer_1" xmlns="http://www.w3.org/2000/svg" xmlns:xlink="http://www.w3.org/1999/xlink" x="0px" y="0px"
	 viewBox="0 0 512 393" style="enable-background:new 0 0 512 393;" xml:space="preserve">
<style type="text/css">
	.st0{fill:#FFFFFF;}
</style>
<path class="st0" d="M490.5,174.4c0.1,31.5-25.3,57.1-56.7,57.2h-50.3c-14.8-18.8-39.3-27.7-63.1-22.4
	c-16.8-42-64.5-62.3-106.4-45.5c-2.1,0.8-4.1,1.7-6.1,2.7c-19.7-19.3-46.2-30-73.8-30c-16.8,0-32.7,3.9-46.9,10.8
	c-1.6-7.3-2.4-14.8-2.4-22.5c0-59,47.8-106.8,106.8-106.8c27.6,0,54.1,10.7,73.8,30c2-1,4-1.9,6.1-2.7
	c41.9-16.8,89.6,3.5,106.4,45.5c26.1-5.9,53,5.4,67.1,28.1C471.4,124.3,490.4,147.5,490.5,174.4z"/>
<path class="st0" d="M128.3,359.3h242.1c31.5-0.1,56.9-25.8,56.7-57.2c-0.1-26.9-19.1-50.1-45.4-55.5c-14.1-22.7-41-34-67.1-28.1
	c-16.8-42-64.5-62.3-106.4-45.5c-2.1,0.8-4.1,1.7-6.1,2.7c-19.7-19.3-46.2-30-73.8-30c-59,0-106.8,47.8-106.8,106.8
	S69.3,359.3,128.3,359.3z"/>
</svg>
